<svg width="70" height="81" viewBox="0 0 70 81" fill="none" xmlns="http://www.w3.org/2000/svg">
<g clip-path="url(#clip0_2020_99)">
<path d="M44.7999 56.7001C44.7999 56.7001 56.4367 56.7001 57.5371 56.7001C63.6481 56.7001 68.5999 50.9702 68.5999 43.9005C68.5999 36.8308 63.6481 31.0992 57.5371 31.0992C57.5091 31.0992 57.4839 31.1041 57.4559 31.1041C57.5413 30.3038 57.6001 29.4938 57.6001 28.6676C57.6001 17.7974 49.9855 8.98462 40.5901 8.98462C33.2695 8.98462 27.0493 14.3452 24.6497 21.849C23.1279 20.0849 21.0223 18.9914 18.6983 18.9914C14.0517 18.9914 10.2857 23.3492 10.2857 28.7243C10.2857 28.862 10.2997 28.9949 10.3039 29.1309C5.1729 30.772 1.3999 36.1974 1.3999 42.6563C1.3999 50.4129 6.8333 56.7001 13.5379 56.7001C14.6957 56.7001 25.1999 56.7001 25.1999 56.7001" stroke="#B9B7B7" stroke-width="2" stroke-miterlimit="10" stroke-linecap="round" stroke-linejoin="round"/>
<path d="M28 45.36L35 37.26L42 45.36" stroke="#B9B7B7" stroke-width="2" stroke-miterlimit="10" stroke-linecap="round"/>
<path d="M35 69.6601V37.7996" stroke="#B9B7B7" stroke-width="2" stroke-miterlimit="10" stroke-linecap="round"/>
</g>
<defs>
<clipPath id="clip0_2020_99">
<rect width="70" height="81" fill="white"/>
</clipPath>
</defs>
</svg>
